<?xml version="1.0" standalone="no"?><!DOCTYPE svg PUBLIC "-//W3C//DTD SVG 1.1//EN" "http://www.w3.org/Graphics/SVG/1.1/DTD/svg11.dtd"><svg t="1612853442470" class="icon" viewBox="0 0 1024 1024" version="1.1" xmlns="http://www.w3.org/2000/svg" p-id="2728" width="96" height="96" xmlns:xlink="http://www.w3.org/1999/xlink"><defs><style type="text/css"></style></defs><path d="M810.666667 384a128 128 0 0 0-120.32 85.333333H128a42.666667 42.666667 0 0 0 0 85.333334h562.346667A128 128 0 1 0 810.666667 384zM128 298.666667h50.346667a128 128 0 0 0 240.64 0H896a42.666667 42.666667 0 0 0 0-85.333334H418.986667a128 128 0 0 0-240.64 0H128a42.666667 42.666667 0 0 0 0 85.333334zM896 725.333333h-306.346667a128 128 0 0 0-240.64 0H128a42.666667 42.666667 0 0 0 0 85.333334h221.013333a128 128 0 0 0 240.64 0H896a42.666667 42.666667 0 0 0 0-85.333334z" p-id="2729" fill="#333333"></path></svg>